<svg width="48" height="48" viewBox="0 0 48 48" fill="none" xmlns="http://www.w3.org/2000/svg">
<rect width="48" height="48" rx="5" fill="#1B73E0"/>
<path d="M30.4 11.36C31.456 12.608 31.984 13.352 31.984 13.592C31.984 13.832 31.864 14.096 31.624 14.384C30.496 15.656 29.176 16.94 27.664 18.236C27.328 18.524 27.076 18.668 26.908 18.668C26.668 18.668 26.548 18.488 26.548 18.128C26.548 17.744 26.704 17.24 27.016 16.616C27.352 15.992 27.52 15.632 27.52 15.536C27.52 15.44 27.472 15.392 27.376 15.392C27.304 15.392 27.196 15.416 27.052 15.464C24.292 16.448 22.372 17.996 21.292 20.108C21.052 20.588 20.932 20.984 20.932 21.296C20.932 21.92 21.412 22.508 22.372 23.06C22.516 23.156 23.164 23.504 24.316 24.104C26.644 25.352 28.108 26.36 28.708 27.128C29.668 28.328 30.148 29.504 30.148 30.656C30.148 31.112 30.016 31.592 29.752 32.096C29.512 32.576 29.2 32.936 28.816 33.176C24.76 35.696 21.148 36.956 17.98 36.956C16.3 36.956 15.46 36.188 15.46 34.652C15.46 34.148 15.628 33.668 15.964 33.212C15.388 32.804 15.1 32.372 15.1 31.916C15.1 31.436 15.424 30.956 16.072 30.476C17.608 29.324 20.08 28.748 23.488 28.748C23.848 28.748 24.28 28.88 24.784 29.144C25.288 29.384 25.696 29.648 26.008 29.936C26.608 29.6 26.908 29.3 26.908 29.036C26.908 28.772 26.752 28.508 26.44 28.244C25.984 27.908 25.132 27.464 23.884 26.912C22.66 26.36 21.88 25.988 21.544 25.796C20.536 25.22 19.756 24.392 19.204 23.312C18.676 22.232 18.412 21.092 18.412 19.892C18.412 18.668 18.712 17.564 19.312 16.58C19.936 15.572 20.8 14.696 21.904 13.952C23.584 12.824 25.684 11.792 28.204 10.856C28.54 10.76 28.804 10.712 28.996 10.712C29.548 10.712 30.016 10.928 30.4 11.36ZM23.56 31.304C23.32 31.256 23.044 31.232 22.732 31.232C22.42 31.232 21.808 31.376 20.896 31.664C20.008 31.952 19.564 32.276 19.564 32.636C19.564 32.78 19.648 32.852 19.816 32.852C20.464 32.852 21.712 32.336 23.56 31.304Z" fill="white"/>
</svg>
